<?xml version="1.0" encoding="utf-8"?>
<!DOCTYPE svg PUBLIC "-//W3C//DTD SVG 1.1//EN" "http://www.w3.org/Graphics/SVG/1.1/DTD/svg11.dtd">
<svg width="20" height="20" viewBox="0 0 20 20" fill="none" xmlns="http://www.w3.org/2000/svg">
    <path d="M8.08718 14.6793L9.28754 15.91C9.40457 16.03 9.59483 16.03 9.71186 15.91L10.9122 14.6793C11.0293 14.5593 11.0293 14.3642 10.9122 14.2442C10.7952 14.1242 10.6049 14.1242 10.4879 14.2442L9.80009 14.9494L9.80009 12.3077C9.80009 12.1378 9.66565 12 9.5 12C9.33435 12 9.19991 12.1378 9.19991 12.3077L9.19991 14.9494L8.5115 14.2442C8.45269 14.1839 8.37586 14.1544 8.29964 14.1544C8.22342 14.1544 8.14599 14.1845 8.08778 14.2448C7.97074 14.3648 7.97074 14.5599 8.08778 14.6799L8.08718 14.6793Z" fill="black"/>
    <path d="M10.9128 5.32072L9.71246 4.09C9.59543 3.97 9.40517 3.97 9.28814 4.09L8.08778 5.32072C7.97074 5.44071 7.97074 5.63578 8.08778 5.75578C8.20481 5.87577 8.39507 5.87577 8.5121 5.75578L9.19991 5.05058V7.69232C9.19991 7.86216 9.33435 8 9.5 8C9.66565 8 9.80009 7.86216 9.80009 7.69232V5.05058L10.4885 5.75578C10.5473 5.81608 10.6241 5.84562 10.7004 5.84562C10.7766 5.84562 10.854 5.81547 10.9122 5.75516C11.0293 5.63517 11.0293 5.4401 10.9122 5.3201L10.9128 5.32072Z" fill="black"/>
    <rect y="9" width="19" height="1" rx="0.5" fill="black"/>
</svg>
